<svg xmlns="http://www.w3.org/2000/svg" xmlns:xlink="http://www.w3.org/1999/xlink" xmlns:lucid="lucid" width="3689.91" height="824.18"><g transform="translate(-760.757175437029 -98.93547859761702)" lucid:page-tab-id="0_0"><path d="M500 0h4000v1000H500z" fill="#f2f3f5"/><path d="M2642.95 109.94a6 6 0 0 1 6-6h208.98a6 6 0 0 1 6 6v149.3a6 6 0 0 1-6 6h-208.98a6 6 0 0 1-6-6z" stroke="#ff3d3d" stroke-width="10" fill-opacity="0"/><use xlink:href="#a" transform="matrix(1,0,0,1,2654.9458193686705,115.93547859761702) translate(4.648148148148152 73.08333333333334)"/><path d="M2928.4 500.64a6 6 0 0 1 6-6h208.98a6 6 0 0 1 6 6v149.3a6 6 0 0 1-6 6h-209a6 6 0 0 1-6-6z" stroke="#ff3d3d" stroke-width="10" fill-opacity="0"/><use xlink:href="#b" transform="matrix(1,0,0,1,2940.3942442406938,506.64421850190496) translate(60.79629629629629 73.08333333333334)"/><path d="M2753.47 271.75l.02 1.1.15 2.54.26 2.47.37 2.43.46 2.4.55 2.35.66 2.34.75 2.32.86 2.34 1 2.34 1.1 2.36 1.25 2.38 1.4 2.43 1.58 2.48 1.77 2.54 1.98 2.6 2.25 2.72 2.54 2.82 2.9 2.96 3.33 3.12 3.84 3.32 4.5 3.56 5.33 3.87 6.42 4.26 7.92 4.8 10.12 5.54 13.67 6.77 21.1 9.34 110.3 44.67 13.67 6.77 10.1 5.55 7.93 4.8 6.43 4.25 5.33 3.87 4.5 3.55 3.85 3.32 3.33 3.12 2.9 2.95 2.55 2.82 2.24 2.7 1.98 2.63 1.77 2.54 1.57 2.48 1.4 2.42 1.25 2.4 1.1 2.35 1 2.33.86 2.33.73 2.24" stroke="#3a414a" stroke-width="3" stroke-linejoin="round" fill="none"/><path d="M2754.95 271.75l-2.95.07-.04-1.58h2.95z" stroke="#3a414a" stroke-width=".05" fill="#3a414a"/><path d="M3038.45 486.68l-9.3-11.77 14.84-2.16z" stroke="#3a414a" stroke-width="3" fill="#3a414a"/><path d="M3625.06 500.64a6 6 0 0 1 6-6h209a6 6 0 0 1 6 6v149.3a6 6 0 0 1-6 6h-209a6 6 0 0 1-6-6z" stroke="#ff3d3d" stroke-width="10" fill-opacity="0"/><use xlink:href="#c" transform="matrix(1,0,0,1,3637.0634792653395,506.6442185019049) translate(53.388888888888886 73.08333333333334)"/><path d="M2753.5 271.75v.03l.08.76.12.76.14.76.18.77.22.8.26.78.3.82.35.83.4.85.46.87.53.9.6.96.7.98.78 1.05.9 1.1 1.05 1.15 1.2 1.23 1.42 1.32 1.66 1.43 1.96 1.55 2.32 1.7 2.83 1.87 3.44 2.08 4.27 2.35 5.38 2.66 6.94 3.07 9.14 3.62 12.47 4.3 17.68 5.32 26.5 6.75 43.18 9.1 82.43 13.7 604.64 77.66 43.18 9.08 26.5 6.77 17.67 5.3 12.45 4.33 9.16 3.6 6.94 3.1 5.4 2.66 4.26 2.35 3.45 2.1 2.82 1.86 2.34 1.7 1.97 1.55 1.65 1.43 1.4 1.33 1.22 1.23.1.1" stroke="#3a414a" stroke-width="3" stroke-linejoin="round" fill="none"/><path d="M2754.95 271.75l-2.95.07-.04-1.58h2.95z" stroke="#3a414a" stroke-width=".05" fill="#3a414a"/><path d="M3734.32 486.9l-12.18-8.74 13.67-6.18z" stroke="#3a414a" stroke-width="3" fill="#3a414a"/><path d="M4025.6 500.64a6 6 0 0 1 6-6h208.97a6 6 0 0 1 6 6v149.3a6 6 0 0 1-6 6H4031.6a6 6 0 0 1-6-6z" stroke="#ff3d3d" stroke-width="10" fill-opacity="0"/><use xlink:href="#d" transform="matrix(1,0,0,1,4037.587603931076,506.6442185019049) translate(53.388888888888886 73.08333333333334)"/><path d="M2753.53 271.74v.14l.1.55.1.55.13.55.16.57.18.57.22.6.26.6.3.6.32.66.4.67.43.7.5.72.6.77.67.8.78.87.9.93 1.07 1 1.25 1.07 1.5 1.18 1.78 1.3 2.17 1.43 2.66 1.6 3.33 1.84 4.22 2.08 5.47 2.43 7.27 2.87 9.96 3.46 14.24 4.27 21.42 5.46 34.67 7.3 62.85 10.46 143.22 17.55 879.4 81.63 62.86 10.47 34.67 7.3 21.42 5.46 14.24 4.27 9.97 3.46 7.27 2.86 5.47 2.42 4.22 2.1 3.3 1.8 2.67 1.62 2.17 1.44 1.8 1.3 1.32 1.05" stroke="#3a414a" stroke-width="3" stroke-linejoin="round" fill="none"/><path d="M2754.95 271.75l-2.95.07-.04-1.58h2.95z" stroke="#3a414a" stroke-width=".05" fill="#3a414a"/><path d="M4134.55 487.06l-13.07-7.35 12.9-7.64z" stroke="#3a414a" stroke-width="3" fill="#3a414a"/><path d="M2071.56 500.64a6 6 0 0 1 6-6h209a6 6 0 0 1 6 6v149.3a6 6 0 0 1-6 6h-209a6 6 0 0 1-6-6z" stroke="#ff3d3d" stroke-width="10" fill-opacity="0"/><use xlink:href="#e" transform="matrix(1,0,0,1,2083.563660447581,506.644218501905) translate(66.68518518518518 73.08333333333334)"/><path d="M2753.4 271.75l-.07 1.1-.14 1.3-.2 1.27-.24 1.28-.3 1.28-.36 1.3-.42 1.3-.5 1.3-.55 1.34-.65 1.37-.73 1.38-.83 1.44-.94 1.5-1.08 1.53-1.22 1.6-1.4 1.7-1.58 1.76-1.84 1.88-2.12 2-2.47 2.12-2.9 2.3-3.42 2.48-4.1 2.72-4.96 3-6.1 3.35-7.64 3.78-9.77 4.33-12.88 5.08-17.64 6.12-25.72 7.73-42.2 10.73-303.62 64.37-25.73 7.73-17.63 6.12-12.86 5.07-9.76 4.34-7.63 3.78-6.1 3.35-4.95 3-4.1 2.7-3.43 2.5-2.9 2.3-2.47 2.12-2.12 2-1.83 1.86-1.6 1.77-1.4 1.68-1.2 1.6L2188 471l-.95 1.48-.3.56" stroke="#3a414a" stroke-width="3" stroke-linejoin="round" fill="none"/><path d="M2754.88 271.82l-2.95-.07.03-1.5h2.95z" stroke="#3a414a" stroke-width=".05" fill="#3a414a"/><path d="M2182.87 486.76l-3.68-14.54 14.42 4.08z" stroke="#3a414a" stroke-width="3" fill="#3a414a"/><path d="M2734.25 762.8a6 6 0 0 1 6-6h262.4a6 6 0 0 1 6 6v149.3a6 6 0 0 1-6 6h-262.4a6 6 0 0 1-6-6z" stroke="#ff3d3d" stroke-width="10" fill-opacity="0"/><use xlink:href="#f" transform="matrix(1,0,0,1,2746.2490303490745,768.8054637376603) translate(15.277777777777771 73.08333333333334)"/><path d="M3038.82 662.45v.02l-.07.74-.1.74-.15.73-.17.72-.2.72-.24.72-.28.74-.3.73-.37.76-.4.77-.45.78-.5.8-.58.84-.65.86-.74.9-.85.93-.96.98-1.1 1.05-1.3 1.1-1.5 1.2-1.75 1.27-2.1 1.4-2.56 1.54-3.13 1.72-3.95 1.96-5.15 2.3-7.04 2.77-10.55 3.66-21.6 6.44-51.42 14.6-10.56 3.65-7.04 2.78-5.15 2.28-3.94 1.97-3.14 1.73-2.55 1.54-2.1 1.4-1.77 1.28-1.5 1.18-1.28 1.1-.76.72" stroke="#3a414a" stroke-width="3" stroke-linejoin="round" fill="none"/><path d="M3040.33 662.52l-2.95-.06.03-1.5h2.96z" stroke="#3a414a" stroke-width=".05" fill="#3a414a"/><path d="M2872.75 749.1l-1.07-14.96 13.5 6.55z" stroke="#3a414a" stroke-width="3" fill="#3a414a"/><path d="M3428.53 762.8a6 6 0 0 1 6-6h262.4a6 6 0 0 1 6 6v149.3a6 6 0 0 1-6 6h-262.4a6 6 0 0 1-6-6z" stroke="#ff3d3d" stroke-width="10" fill-opacity="0"/><use xlink:href="#f" transform="matrix(1,0,0,1,3440.53294174808,768.8054637376604) translate(15.277777777777771 73.08333333333334)"/><path d="M3735.5 662.45l-.08.7-.1.7-.14.7-.16.7-.2.7-.23.7-.27.72-.3.72-.35.72-.4.74-.43.76-.5.78-.56.8-.64.85-.72.87-.83.9-.93.97-1.08 1-1.27 1.1-1.46 1.15-1.73 1.26-2.06 1.38-2.5 1.5-3.06 1.7-3.86 1.9-5 2.22-6.8 2.68-9.96 3.45-18.15 5.42-63.92 17.68-9.97 3.45-6.8 2.68-5 2.22-3.85 1.9-3.06 1.7-2.5 1.5-2.05 1.37-1.74 1.25-1.47 1.17-1.26 1.08-.4.37" stroke="#3a414a" stroke-width="3" stroke-linejoin="round" fill="none"/><path d="M3737 662.52l-2.95-.06.03-1.5h2.95z" stroke="#3a414a" stroke-width=".05" fill="#3a414a"/><path d="M3563.5 749.12l-.9-14.97 13.42 6.7z" stroke="#3a414a" stroke-width="3" fill="#3a414a"/><path d="M3828.97 762.8a6 6 0 0 1 6-6h262.38a6 6 0 0 1 6 6v149.3a6 6 0 0 1-6 6h-262.38a6 6 0 0 1-6-6z" stroke="#ff3d3d" stroke-width="10" fill-opacity="0"/><use xlink:href="#f" transform="matrix(1,0,0,1,3840.96667000426,768.8054637376603) translate(15.277777777777771 73.08333333333334)"/><path d="M4136.02 662.45l-.08.73-.1.72-.14.72-.17.7-.2.73-.23.72-.27.72-.3.72-.36.74-.4.75-.44.8-.5.78-.57.82-.65.85-.72.88-.83.93-.96.97-1.1 1.03-1.28 1.1-1.48 1.17-1.75 1.27-2.1 1.4-2.52 1.52-3.1 1.7-3.93 1.94-5.08 2.26-6.93 2.73-10.3 3.57-19.84 5.92-57 16-10.3 3.56-6.92 2.74-5.1 2.26-3.9 1.94-3.1 1.7-2.54 1.53-2.1 1.38-1.74 1.27-1.48 1.18-1.27 1.1-.6.56" stroke="#3a414a" stroke-width="3" stroke-linejoin="round" fill="none"/><path d="M4137.52 662.52l-2.95-.06.03-1.5h2.96z" stroke="#3a414a" stroke-width=".05" fill="#3a414a"/><path d="M3967.48 749.1l-1-14.95 13.46 6.6z" stroke="#3a414a" stroke-width="3" fill="#3a414a"/><path d="M2871.5 750.3l.1-.75.1-.74.13-.7.17-.74.2-.72.24-.73.27-.72.32-.74.36-.75.4-.77.45-.78.5-.8.58-.83.66-.86.74-.9.85-.93.96-.98 1.12-1.04 1.28-1.1 1.5-1.18 1.76-1.28 2.1-1.4 2.56-1.54 3.14-1.73 3.95-1.96 5.16-2.27 7.04-2.78 10.56-3.65 21.6-6.44 51.4-14.6 10.57-3.65 7.04-2.77 5.15-2.3 3.95-1.95 3.14-1.72 2.56-1.54 2.1-1.4 1.77-1.28 1.5-1.2 1.28-1.1.77-.7" stroke="#3a414a" stroke-width="3" stroke-linejoin="round" fill="none"/><path d="M2872.95 750.3l-.03 1.5h-2.95l.03-1.56z" stroke="#3a414a" stroke-width=".05" fill="#3a414a"/><path d="M3037.58 663.65l1.08 14.96-13.5-6.53z" stroke="#3a414a" stroke-width="3" fill="#3a414a"/><path d="M3565.8 750.3l.07-.72.1-.73.14-.7.18-.73.2-.7.23-.73.28-.73.3-.73.36-.75.4-.76.44-.77.5-.8.57-.82.65-.85.73-.88.83-.93.96-.98 1.1-1.03 1.27-1.1 1.47-1.18 1.75-1.27 2.1-1.4 2.52-1.52 3.1-1.7 3.92-1.94 5.1-2.27 6.93-2.74 10.3-3.58 19.9-5.93 56.8-15.97 10.3-3.56 6.93-2.74 5.1-2.26 3.9-1.94 3.1-1.7 2.54-1.53 2.1-1.4 1.74-1.26 1.5-1.17 1.27-1.1.6-.57" stroke="#3a414a" stroke-width="3" stroke-linejoin="round" fill="none"/><path d="M3567.23 750.3l-.03 1.5h-2.95l.03-1.56z" stroke="#3a414a" stroke-width=".05" fill="#3a414a"/><path d="M3734.24 663.65l1 14.96-13.46-6.6z" stroke="#3a414a" stroke-width="3" fill="#3a414a"/><path d="M3966.22 750.3l.08-.72.1-.73.14-.7.17-.73.2-.7.24-.73.27-.73.32-.73.35-.74.4-.76.44-.77.5-.8.6-.8.63-.86.73-.88.84-.92.95-.98 1.1-1.02 1.27-1.1 1.48-1.18 1.75-1.27 2.1-1.38 2.52-1.53 3.1-1.7 3.92-1.94 5.08-2.26 6.93-2.74 10.3-3.56 19.84-5.92 57-16 10.3-3.57 6.93-2.73 5.08-2.26 3.92-1.94 3.1-1.7 2.53-1.53 2.1-1.4 1.74-1.27 1.48-1.17 1.27-1.1.6-.56" stroke="#3a414a" stroke-width="3" stroke-linejoin="round" fill="none"/><path d="M3967.67 750.3l-.03 1.5h-2.95l.02-1.56z" stroke="#3a414a" stroke-width=".05" fill="#3a414a"/><path d="M4134.76 663.64l1 14.97-13.46-6.6z" stroke="#3a414a" stroke-width="3" fill="#3a414a"/><path d="M3038.86 488.14l-.03-1.1-.16-2.54-.26-2.48-.35-2.43-.45-2.4-.56-2.36-.65-2.34-.77-2.34-.87-2.33-.98-2.34-1.1-2.37-1.26-2.4-1.4-2.4-1.57-2.5-1.77-2.53-2-2.62-2.23-2.7-2.54-2.83-2.9-2.96-3.32-3.13-3.85-3.32-4.5-3.56-5.33-3.88-6.43-4.26-7.92-4.8-10.1-5.54-13.7-6.77-21.08-9.35-110.3-44.66-13.68-6.77-10.13-5.55-7.92-4.8-6.42-4.25-5.33-3.87-4.5-3.56-3.85-3.32-3.33-3.12-2.9-2.96-2.54-2.82-2.25-2.7-1.98-2.63-1.77-2.55-1.57-2.48-1.4-2.43-1.24-2.38-1.1-2.36-1-2.34-.87-2.34-.73-2.23" stroke="#3a414a" stroke-width="3" stroke-linejoin="round" fill="none"/><path d="M3040.36 489.64h-2.95l-.02-1.5 2.95-.07z" stroke="#3a414a" stroke-width=".05" fill="#3a414a"/><path d="M2753.87 273.2l9.3 11.78-14.83 2.17z" stroke="#3a414a" stroke-width="3" fill="#3a414a"/><path d="M3735.5 488.14v-.03l-.1-.75-.1-.76-.15-.78-.18-.77-.22-.78-.25-.8-.3-.8-.35-.83-.4-.85-.46-.88-.54-.9-.6-.96-.68-1-.8-1.02-.9-1.1-1.04-1.15-1.2-1.24-1.42-1.33-1.65-1.42-1.96-1.54-2.33-1.7-2.82-1.87-3.45-2.1-4.27-2.34-5.4-2.67-6.92-3.1-9.15-3.6-12.46-4.32-17.7-5.3-26.48-6.77-43.18-9.07-82.44-13.7-604.64-77.67-43.18-9.1-26.5-6.74-17.67-5.3-12.46-4.33-9.15-3.63-6.95-3.08-5.38-2.67-4.28-2.35-3.45-2.08-2.83-1.87-2.33-1.7-1.97-1.55-1.66-1.43-1.4-1.32-1.22-1.23-.1-.1h.02" stroke="#3a414a" stroke-width="3" stroke-linejoin="round" fill="none"/><path d="M3737.03 489.64h-2.95l-.03-1.5 2.95-.07z" stroke="#3a414a" stroke-width=".05" fill="#3a414a"/><path d="M2754.67 272.98l12.2 8.75-13.68 6.17z" stroke="#3a414a" stroke-width="3" fill="#3a414a"/><path d="M4136 488.14l-.02-.13-.08-.54-.1-.55-.14-.54-.16-.57-.18-.58-.22-.6-.26-.6-.3-.62-.33-.64-.37-.67-.44-.7-.52-.73-.6-.77-.66-.82-.78-.86-.9-.93-1.07-1-1.26-1.08-1.47-1.18-1.8-1.3-2.16-1.44-2.66-1.6-3.3-1.83-4.23-2.1-5.47-2.4-7.27-2.88-9.97-3.47-14.24-4.27-21.42-5.46-34.67-7.3-62.86-10.47-143.22-17.55-879.4-81.63-62.86-10.46-34.68-7.3-21.42-5.47-14.24-4.27-9.97-3.46-7.28-2.87-5.47-2.43-4.22-2.08-3.32-1.83-2.65-1.62-2.17-1.43-1.8-1.3-1.32-1.05" stroke="#3a414a" stroke-width="3" stroke-linejoin="round" fill="none"/><path d="M4137.56 489.64h-2.96l-.03-1.5 2.95-.07z" stroke="#3a414a" stroke-width=".05" fill="#3a414a"/><path d="M2754.97 272.82l13.07 7.36-12.9 7.64z" stroke="#3a414a" stroke-width="3" fill="#3a414a"/><path d="M3074.1 762.8a6 6 0 0 1 6-6h262.38a6 6 0 0 1 6 6v149.3a6 6 0 0 1-6 6h-262.4a6 6 0 0 1-6-6z" stroke="#ff3d3d" stroke-width="10" fill-opacity="0"/><use xlink:href="#g" transform="matrix(1,0,0,1,3086.08768158061,768.8054637376603) translate(76.16666666666667 73.08333333333334)"/><path d="M3038.95 662.45l.07.7.1.7.14.72.17.7.2.7.23.72.26.7.3.72.35.74.4.74.43.77.5.78.57.82.63.83.73.88.82.92.95.96 1.1 1.02 1.25 1.1 1.47 1.15 1.73 1.26 2.07 1.36 2.5 1.52 3.08 1.7 3.88 1.9 5.03 2.24 6.83 2.7 10.06 3.48 18.56 5.54 62.02 17.22 10.06 3.5 6.82 2.68 5.03 2.23 3.86 1.92 3.08 1.68 2.5 1.5 2.08 1.4 1.73 1.25 1.47 1.16 1.26 1.08.45.42" stroke="#3a414a" stroke-width="3" stroke-linejoin="round" fill="none"/><path d="M3040.4 662.46l-2.95.06-.04-1.57h2.96z" stroke="#3a414a" stroke-width=".05" fill="#3a414a"/><path d="M3209.95 749.12l-12.5-8.3 13.44-6.67z" stroke="#3a414a" stroke-width="3" fill="#3a414a"/><path d="M3211.22 750.3l-.07-.7-.1-.7-.15-.7-.16-.72-.2-.7-.23-.7-.25-.72-.3-.73-.35-.73-.4-.75-.43-.76-.5-.8-.57-.8-.64-.85-.72-.87-.83-.92-.93-.96-1.1-1.02-1.25-1.1-1.47-1.15-1.74-1.26-2.05-1.38-2.5-1.52-3.1-1.7-3.86-1.9-5.04-2.24-6.82-2.7-10.06-3.48-18.57-5.54-62-17.22-10.07-3.5-6.82-2.68-5.02-2.23-3.88-1.93-3.07-1.7-2.5-1.5-2.08-1.38-1.73-1.27-1.47-1.16-1.26-1.1-.46-.4" stroke="#3a414a" stroke-width="3" stroke-linejoin="round" fill="none"/><path d="M3212.76 751.8h-2.95l-.03-1.5 2.95-.06z" stroke="#3a414a" stroke-width=".05" fill="#3a414a"/><path d="M3040.22 663.64l12.5 8.3-13.44 6.67z" stroke="#3a414a" stroke-width="3" fill="#3a414a"/><path d="M4171.28 762.8a6 6 0 0 1 6-6h262.4a6 6 0 0 1 6 6v149.3a6 6 0 0 1-6 6h-262.4a6 6 0 0 1-6-6z" stroke="#ff3d3d" stroke-width="10" fill-opacity="0"/><use xlink:href="#g" transform="matrix(1,0,0,1,4183.281041270993,768.8054637376603) translate(76.16666666666667 73.08333333333334)"/><path d="M4308.4 750.3l-.06-.7-.1-.7-.14-.7-.17-.72-.2-.7-.22-.7-.26-.72-.3-.73-.35-.73-.4-.75-.44-.76-.5-.8-.56-.8-.64-.85-.73-.87-.82-.92-.94-.96-1.1-1.02-1.24-1.1-1.48-1.15-1.73-1.26-2.06-1.38-2.5-1.52-3.08-1.7-3.88-1.9-5.02-2.24-6.83-2.7-10.06-3.48-18.56-5.54-62.02-17.22-10.05-3.5-6.83-2.68-5.03-2.23-3.87-1.93-3.08-1.7-2.5-1.5-2.07-1.38-1.74-1.27-1.46-1.16-1.26-1.1-.45-.4" stroke="#3a414a" stroke-width="3" stroke-linejoin="round" fill="none"/><path d="M4309.95 751.8H4307l-.03-1.5 2.95-.06z" stroke="#3a414a" stroke-width=".05" fill="#3a414a"/><path d="M4137.4 663.64l12.5 8.3-13.43 6.67z" stroke="#3a414a" stroke-width="3" fill="#3a414a"/><path d="M4136.14 662.45l.08.7.1.7.14.72.16.7.2.7.23.72.27.7.3.72.35.74.4.74.43.77.5.78.56.82.64.83.72.88.83.92.94.96 1.08 1.02 1.26 1.1 1.47 1.15 1.75 1.26 2.07 1.36 2.5 1.52 3.08 1.7 3.87 1.9 5.03 2.24 6.83 2.7 10.05 3.48 18.57 5.54 62.02 17.22 10.06 3.5 6.83 2.68 5.02 2.23 3.88 1.92 3.08 1.68 2.5 1.5 2.07 1.4 1.74 1.25 1.48 1.16 1.26 1.08.45.42" stroke="#3a414a" stroke-width="3" stroke-linejoin="round" fill="none"/><path d="M4137.6 662.46l-2.96.06-.04-1.57h2.96z" stroke="#3a414a" stroke-width=".05" fill="#3a414a"/><path d="M4307.14 749.12l-12.5-8.3 13.44-6.67z" stroke="#3a414a" stroke-width="3" fill="#3a414a"/><path d="M765.76 762.8a6 6 0 0 1 6-6h208.98a6 6 0 0 1 6 6v149.3a6 6 0 0 1-6 6H771.76a6 6 0 0 1-6-6z" stroke="#ff3d3d" stroke-width="10" fill-opacity="0"/><use xlink:href="#h" transform="matrix(1,0,0,1,777.757175437029,768.8054637376604) translate(32.64814814814815 73.08333333333334)"/><path d="M2181.63 662.37l-.08.12-.1.13-.1.15-.14.16-.15.17-.18.2-.2.2-.26.2-.3.24-.35.27-.44.3-.54.33-.7.38-.9.45-1.16.52-1.6.63-2.2.77-3.24.96-4.98 1.27-8.3 1.75-15.36 2.55-33.88 4.15-105 8.27-1049.57 48-33.88 4.14-15.38 2.55-8.3 1.75-3.35.86" stroke="#3a414a" stroke-width="3" stroke-linejoin="round" fill="none"/><path d="M2183.5 662.52l-2.95-.06.03-1.5h2.95z" stroke="#3a414a" stroke-width=".05" fill="#3a414a"/><path d="M878.9 750.37l7.82-12.8 7.16 13.2z" stroke="#3a414a" stroke-width="3" fill="#3a414a"/><path d="M2181.7 662.4l-.08.14-.1.15-.1.16-.1.17-.15.18-.16.2-.18.2-.22.24-.25.24-.3.26-.37.3-.44.3-.54.36-.67.4-.84.47-1.08.53-1.4.62-1.9.75-2.65.92-3.83 1.14-5.87 1.5-9.7 2.03-17.76 2.95-38.77 4.76-121.84 9.6-753.44 40.4-38.78 4.76-17.78 2.95-9.68 2.03-5.87 1.5-1.5.44" stroke="#3a414a" stroke-width="3" stroke-linejoin="round" fill="none"/><path d="M2183.5 662.52l-2.95-.06.03-1.5h2.95z" stroke="#3a414a" stroke-width=".05" fill="#3a414a"/><path d="M1133.7 750.24l7.13-13.2 7.85 12.8z" stroke="#3a414a" stroke-width="3" fill="#3a414a"/><path d="M2181.78 662.42l-.02.04-.08.18-.1.2-.1.2-.1.2-.14.2-.16.23-.18.23-.2.25-.25.27-.28.3-.33.3-.4.34-.45.36-.58.4-.68.47-.84.5-1.06.58-1.36.67-1.76.78-2.36.93-3.27 1.13-4.7 1.4-7.16 1.82-11.67 2.46-21.2 3.53-46.07 5.67-166.24 12.9-418.3 27.72-46.07 5.65-21.2 3.53-11.67 2.45-7.15 1.82-4.7 1.42-1.46.5" stroke="#3a414a" stroke-width="3" stroke-linejoin="round" fill="none"/><path d="M2183.5 662.52l-2.95-.06.03-1.5h2.95z" stroke="#3a414a" stroke-width=".05" fill="#3a414a"/><path d="M1388.44 750.05l6.16-13.68 8.77 12.17z" stroke="#3a414a" stroke-width="3" fill="#3a414a"/><path d="M1530.4 762.8a6 6 0 0 1 6-6h208.98a6 6 0 0 1 6 6v149.3a6 6 0 0 1-6 6h-209a6 6 0 0 1-6-6z" stroke="#ff3d3d" stroke-width="10" fill-opacity="0"/><use xlink:href="#i" transform="matrix(1,0,0,1,1542.3941407079826,768.8054637376604) translate(25.240740740740748 73.08333333333334)"/><path d="M2181.86 662.44l-.06.2-.08.25-.1.25-.1.26-.13.28-.16.28-.17.3-.2.3-.2.3-.26.35-.3.36-.33.38-.4.4-.45.43-.55.47-.64.5-.78.58-.94.62-1.14.7-1.44.78-1.82.9-2.35 1.05-3.14 1.24-4.28 1.5-6.1 1.83-9.2 2.34-14.87 3.13-27.02 4.5-63.04 7.72-323.3 31.24-27 4.5-14.88 3.13-9.18 2.33-6.12 1.83-4.3 1.5-3.12 1.23-.5.2" stroke="#3a414a" stroke-width="3" stroke-linejoin="round" fill="none"/><path d="M2183.5 662.52l-2.95-.06.03-1.5h2.95z" stroke="#3a414a" stroke-width=".05" fill="#3a414a"/><path d="M1643.1 749.8l4.57-14.3 10.1 11.1z" stroke="#3a414a" stroke-width="3" fill="#3a414a"/><path d="M1275.52 762.8a6 6 0 0 1 6-6h208.98a6 6 0 0 1 6 6v149.3a6 6 0 0 1-6 6h-208.98a6 6 0 0 1-6-6z" stroke="#ff3d3d" stroke-width="10" fill-opacity="0"/><use xlink:href="#j" transform="matrix(1,0,0,1,1287.5151522843314,768.8054637376604) translate(25.240740740740748 73.08333333333334)"/><path d="M1020.64 762.8a6 6 0 0 1 6-6h208.98a6 6 0 0 1 6 6v149.3a6 6 0 0 1-6 6h-208.98a6 6 0 0 1-6-6z" stroke="#ff3d3d" stroke-width="10" fill-opacity="0"/><use xlink:href="#k" transform="matrix(1,0,0,1,1032.6361638606802,768.8054637376604) translate(25.240740740740748 73.08333333333334)"/><path d="M1785.27 762.8a6 6 0 0 1 6-6h209a6 6 0 0 1 6 6v149.3a6 6 0 0 1-6 6h-209a6 6 0 0 1-6-6z" stroke="#ff3d3d" stroke-width="10" fill-opacity="0"/><use xlink:href="#l" transform="matrix(1,0,0,1,1797.2731291316343,768.8054637376604) translate(25.351851851851848 73.08333333333334)"/><path d="M2181.95 662.45l-.04.28-.08.45-.1.44-.13.45-.15.45-.18.46-.2.47-.22.48-.26.5-.3.5-.34.53-.38.55-.43.6-.5.6-.57.62-.66.67-.77.7-.9.78-1.04.84-1.24.9-1.5 1-1.82 1.1-2.24 1.22-2.8 1.4-3.6 1.6-4.72 1.85-6.42 2.22-9.17 2.75-14.1 3.6-25.22 5.3-151.17 26.52-14.07 3.6-9.16 2.74-6.43 2.22-4.72 1.87-3.6 1.6-2.8 1.38-2.24 1.24-1.82 1.1-.27.18" stroke="#3a414a" stroke-width="3" stroke-linejoin="round" fill="none"/><path d="M2183.5 662.52l-2.95-.06.03-1.5h2.95z" stroke="#3a414a" stroke-width=".05" fill="#3a414a"/><path d="M1897.52 749.38l1.54-14.93 12.15 8.8z" stroke="#3a414a" stroke-width="3" fill="#3a414a"/><path d="M2049.86 762.8a6 6 0 0 1 6-6h209a6 6 0 0 1 6 6v149.3a6 6 0 0 1-6 6h-209a6 6 0 0 1-6-6z" stroke="#ff3d3d" stroke-width="10" fill-opacity="0"/><use xlink:href="#l" transform="matrix(1,0,0,1,2061.861793304758,768.8054637376604) translate(25.351851851851848 73.08333333333334)"/><path d="M2182.02 662.45l-.15 5.56-.48 5.86-.7 5.04-.88 4.5-1.07 4.22-1.3 4.18-1.72 4.57-3.17 7.16-5.88 12.86-1.7 4.56-1.32 4.17-1.07 4.22-.88 4.5-.07.53" stroke="#3a414a" stroke-width="3" stroke-linejoin="round" fill="none"/><path d="M2183.5 662.53l-2.96-.08.04-1.5h2.95z" stroke="#3a414a" stroke-width=".05" fill="#3a414a"/><path d="M2160.58 748.8l-6.52-13.5 14.95 1.1z" stroke="#3a414a" stroke-width="3" fill="#3a414a"/><path d="M2314.45 762.8a6 6 0 0 1 6-6h209a6 6 0 0 1 6 6v149.3a6 6 0 0 1-6 6h-209a6 6 0 0 1-6-6z" stroke="#ff3d3d" stroke-width="10" fill-opacity="0"/><use xlink:href="#m" transform="matrix(1,0,0,1,2326.450457477882,768.8054637376605) translate(20.092592592592595 73.08333333333334)"/><path d="M2182.15 662.45v.08l.08.5.1.53.12.52.15.52.17.52.2.54.22.54.25.55.3.57.34.58.37.6.44.63.5.65.57.68.64.72.76.76.86.8 1 .88 1.18.93 1.4 1 1.67 1.12 2.02 1.22 2.47 1.36 3.1 1.54 4 1.76 5.23 2.07 7.17 2.5 10.4 3.1 16.83 4.3 41.02 8.5 76.58 15.2 16.83 4.3 10.4 3.1 7.17 2.5 5.24 2.07 3.98 1.76 3.1 1.54 2.5 1.37 2 1.22 1.68 1.1.64.46" stroke="#3a414a" stroke-width="3" stroke-linejoin="round" fill="none"/><path d="M2183.56 662.46l-2.95.06-.02-1.57h2.95z" stroke="#3a414a" stroke-width=".05" fill="#3a414a"/><path d="M2423.32 749.28l-13.34-6.86 12.62-8.12z" stroke="#3a414a" stroke-width="3" fill="#3a414a"/><defs><path d="M143 4C61 4 22-44 18-125c-5-107 100-154 193-111 17 8 29 25 37 43l-32 9c-13-25-37-40-76-40-61 0-88 39-88 99 0 61 29 100 91 101 35 0 62-11 79-27v-45h-74v-28h105v86C228-13 192 4 143 4" id="n"/><path d="M141-36C126-15 110 5 73 4 37 3 15-17 15-53c-1-64 63-63 125-63 3-35-9-54-41-54-24 1-41 7-42 31l-33-3c5-37 33-52 76-52 45 0 72 20 72 64v82c-1 20 7 32 28 27v20c-31 9-61-2-59-35zM48-53c0 20 12 33 32 33 41-3 63-29 60-74-43 2-92-5-92 41" id="o"/><path d="M210-169c-67 3-38 105-44 169h-31v-121c0-29-5-50-35-48C34-165 62-65 56 0H25l-1-190h30c1 10-1 24 2 32 10-44 99-50 107 0 11-21 27-35 58-36 85-2 47 119 55 194h-31v-121c0-29-5-49-35-48" id="p"/><path d="M100-194c63 0 86 42 84 106H49c0 40 14 67 53 68 26 1 43-12 49-29l28 8c-11 28-37 45-77 45C44 4 14-33 15-96c1-61 26-98 85-98zm52 81c6-60-76-77-97-28-3 7-6 17-6 28h103" id="q"/><path d="M212-179c-10-28-35-45-73-45-59 0-87 40-87 99 0 60 29 101 89 101 43 0 62-24 78-52l27 14C228-24 195 4 139 4 59 4 22-46 18-125c-6-104 99-153 187-111 19 9 31 26 39 46" id="r"/><path d="M100-194c62-1 85 37 85 99 1 63-27 99-86 99S16-35 15-95c0-66 28-99 85-99zM99-20c44 1 53-31 53-75 0-43-8-75-51-75s-53 32-53 75 10 74 51 75" id="s"/><path d="M117-194c89-4 53 116 60 194h-32v-121c0-31-8-49-39-48C34-167 62-67 57 0H25l-1-190h30c1 10-1 24 2 32 11-22 29-35 61-36" id="t"/><path d="M59-47c-2 24 18 29 38 22v24C64 9 27 4 27-40v-127H5v-23h24l9-43h21v43h35v23H59v120" id="u"/><path d="M114-163C36-179 61-72 57 0H25l-1-190h30c1 12-1 29 2 39 6-27 23-49 58-41v29" id="v"/><path d="M24 0v-261h32V0H24" id="w"/><g id="a"><use transform="matrix(0.07407407407407408,0,0,0.07407407407407408,0,0)" xlink:href="#n"/><use transform="matrix(0.07407407407407408,0,0,0.07407407407407408,20.740740740740744,0)" xlink:href="#o"/><use transform="matrix(0.07407407407407408,0,0,0.07407407407407408,35.55555555555556,0)" xlink:href="#p"/><use transform="matrix(0.07407407407407408,0,0,0.07407407407407408,57.70370370370371,0)" xlink:href="#q"/><use transform="matrix(0.07407407407407408,0,0,0.07407407407407408,72.51851851851853,0)" xlink:href="#r"/><use transform="matrix(0.07407407407407408,0,0,0.07407407407407408,91.70370370370371,0)" xlink:href="#s"/><use transform="matrix(0.07407407407407408,0,0,0.07407407407407408,106.51851851851853,0)" xlink:href="#t"/><use transform="matrix(0.07407407407407408,0,0,0.07407407407407408,121.33333333333334,0)" xlink:href="#u"/><use transform="matrix(0.07407407407407408,0,0,0.07407407407407408,128.74074074074076,0)" xlink:href="#v"/><use transform="matrix(0.07407407407407408,0,0,0.07407407407407408,137.55555555555557,0)" xlink:href="#s"/><use transform="matrix(0.07407407407407408,0,0,0.07407407407407408,152.37037037037038,0)" xlink:href="#w"/><use transform="matrix(0.07407407407407408,0,0,0.07407407407407408,158.22222222222226,0)" xlink:href="#w"/><use transform="matrix(0.07407407407407408,0,0,0.07407407407407408,164.07407407407408,0)" xlink:href="#q"/><use transform="matrix(0.07407407407407408,0,0,0.07407407407407408,178.88888888888889,0)" xlink:href="#v"/></g><path d="M30-248c87 1 191-15 191 75 0 78-77 80-158 76V0H30v-248zm33 125c57 0 124 11 124-50 0-59-68-47-124-48v98" id="x"/><path d="M179-190L93 31C79 59 56 82 12 73V49c39 6 53-20 64-50L1-190h34L92-34l54-156h33" id="y"/><g id="b"><use transform="matrix(0.07407407407407408,0,0,0.07407407407407408,0,0)" xlink:href="#x"/><use transform="matrix(0.07407407407407408,0,0,0.07407407407407408,17.77777777777778,0)" xlink:href="#w"/><use transform="matrix(0.07407407407407408,0,0,0.07407407407407408,23.629629629629633,0)" xlink:href="#o"/><use transform="matrix(0.07407407407407408,0,0,0.07407407407407408,38.44444444444445,0)" xlink:href="#y"/><use transform="matrix(0.07407407407407408,0,0,0.07407407407407408,51.777777777777786,0)" xlink:href="#q"/><use transform="matrix(0.07407407407407408,0,0,0.07407407407407408,66.59259259259261,0)" xlink:href="#v"/></g><path d="M101-251c68 0 85 55 85 127S166 4 100 4C33 4 14-52 14-124c0-73 17-127 87-127zm-1 229c47 0 54-49 54-102s-4-102-53-102c-51 0-55 48-55 102 0 53 5 102 54 102" id="z"/><g id="c"><use transform="matrix(0.07407407407407408,0,0,0.07407407407407408,0,0)" xlink:href="#x"/><use transform="matrix(0.07407407407407408,0,0,0.07407407407407408,17.77777777777778,0)" xlink:href="#w"/><use transform="matrix(0.07407407407407408,0,0,0.07407407407407408,23.629629629629633,0)" xlink:href="#o"/><use transform="matrix(0.07407407407407408,0,0,0.07407407407407408,38.44444444444445,0)" xlink:href="#y"/><use transform="matrix(0.07407407407407408,0,0,0.07407407407407408,51.777777777777786,0)" xlink:href="#q"/><use transform="matrix(0.07407407407407408,0,0,0.07407407407407408,66.59259259259261,0)" xlink:href="#v"/><use transform="matrix(0.07407407407407408,0,0,0.07407407407407408,75.40740740740742,0)" xlink:href="#z"/></g><path d="M27 0v-27h64v-190l-56 39v-29l58-41h29v221h61V0H27" id="A"/><g id="d"><use transform="matrix(0.07407407407407408,0,0,0.07407407407407408,0,0)" xlink:href="#x"/><use transform="matrix(0.07407407407407408,0,0,0.07407407407407408,17.77777777777778,0)" xlink:href="#w"/><use transform="matrix(0.07407407407407408,0,0,0.07407407407407408,23.629629629629633,0)" xlink:href="#o"/><use transform="matrix(0.07407407407407408,0,0,0.07407407407407408,38.44444444444445,0)" xlink:href="#y"/><use transform="matrix(0.07407407407407408,0,0,0.07407407407407408,51.777777777777786,0)" xlink:href="#q"/><use transform="matrix(0.07407407407407408,0,0,0.07407407407407408,66.59259259259261,0)" xlink:href="#v"/><use transform="matrix(0.07407407407407408,0,0,0.07407407407407408,75.40740740740742,0)" xlink:href="#A"/></g><path d="M30 0v-248h33v221h125V0H30" id="B"/><path d="M108 0H70L1-190h34L89-25l56-165h34" id="C"/><g id="e"><use transform="matrix(0.07407407407407408,0,0,0.07407407407407408,0,0)" xlink:href="#B"/><use transform="matrix(0.07407407407407408,0,0,0.07407407407407408,14.814814814814817,0)" xlink:href="#q"/><use transform="matrix(0.07407407407407408,0,0,0.07407407407407408,29.629629629629633,0)" xlink:href="#C"/><use transform="matrix(0.07407407407407408,0,0,0.07407407407407408,42.96296296296297,0)" xlink:href="#q"/><use transform="matrix(0.07407407407407408,0,0,0.07407407407407408,57.777777777777786,0)" xlink:href="#w"/></g><path d="M33 0v-248h34V0H33" id="D"/><path d="M30-248c118-7 216 8 213 122C240-48 200 0 122 0H30v-248zM63-27c89 8 146-16 146-99s-60-101-146-95v194" id="E"/><path d="M96-169c-40 0-48 33-48 73s9 75 48 75c24 0 41-14 43-38l32 2c-6 37-31 61-74 61-59 0-76-41-82-99-10-93 101-131 147-64 4 7 5 14 7 22l-32 3c-4-21-16-35-41-35" id="F"/><path d="M24-231v-30h32v30H24zM24 0v-190h32V0H24" id="G"/><path d="M205 0l-28-72H64L36 0H1l101-248h38L239 0h-34zm-38-99l-47-123c-12 45-31 82-46 123h93" id="H"/><g id="f"><use transform="matrix(0.07407407407407408,0,0,0.07407407407407408,0,0)" xlink:href="#D"/><use transform="matrix(0.07407407407407408,0,0,0.07407407407407408,7.407407407407408,0)" xlink:href="#u"/><use transform="matrix(0.07407407407407408,0,0,0.07407407407407408,14.814814814814817,0)" xlink:href="#q"/><use transform="matrix(0.07407407407407408,0,0,0.07407407407407408,29.629629629629633,0)" xlink:href="#p"/><use transform="matrix(0.07407407407407408,0,0,0.07407407407407408,51.777777777777786,0)" xlink:href="#E"/><use transform="matrix(0.07407407407407408,0,0,0.07407407407407408,70.96296296296298,0)" xlink:href="#q"/><use transform="matrix(0.07407407407407408,0,0,0.07407407407407408,85.7777777777778,0)" xlink:href="#u"/><use transform="matrix(0.07407407407407408,0,0,0.07407407407407408,93.18518518518519,0)" xlink:href="#q"/><use transform="matrix(0.07407407407407408,0,0,0.07407407407407408,108.00000000000003,0)" xlink:href="#F"/><use transform="matrix(0.07407407407407408,0,0,0.07407407407407408,121.33333333333337,0)" xlink:href="#u"/><use transform="matrix(0.07407407407407408,0,0,0.07407407407407408,128.7407407407408,0)" xlink:href="#G"/><use transform="matrix(0.07407407407407408,0,0,0.07407407407407408,134.59259259259264,0)" xlink:href="#s"/><use transform="matrix(0.07407407407407408,0,0,0.07407407407407408,149.40740740740745,0)" xlink:href="#t"/><use transform="matrix(0.07407407407407408,0,0,0.07407407407407408,164.22222222222226,0)" xlink:href="#H"/><use transform="matrix(0.07407407407407408,0,0,0.07407407407407408,182.00000000000003,0)" xlink:href="#v"/><use transform="matrix(0.07407407407407408,0,0,0.07407407407407408,190.81481481481484,0)" xlink:href="#q"/><use transform="matrix(0.07407407407407408,0,0,0.07407407407407408,205.62962962962965,0)" xlink:href="#o"/></g><path d="M266 0h-40l-56-210L115 0H75L2-248h35L96-30l15-64 43-154h32l59 218 59-218h35" id="I"/><path d="M115-194c55 1 70 41 70 98S169 2 115 4C84 4 66-9 55-30l1 105H24l-1-265h31l2 30c10-21 28-34 59-34zm-8 174c40 0 45-34 45-75s-6-73-45-74c-42 0-51 32-51 76 0 43 10 73 51 73" id="J"/><g id="g"><use transform="matrix(0.07407407407407408,0,0,0.07407407407407408,0,0)" xlink:href="#I"/><use transform="matrix(0.07407407407407408,0,0,0.07407407407407408,24.592592592592595,0)" xlink:href="#q"/><use transform="matrix(0.07407407407407408,0,0,0.07407407407407408,39.40740740740741,0)" xlink:href="#o"/><use transform="matrix(0.07407407407407408,0,0,0.07407407407407408,54.22222222222223,0)" xlink:href="#J"/><use transform="matrix(0.07407407407407408,0,0,0.07407407407407408,69.03703703703704,0)" xlink:href="#s"/><use transform="matrix(0.07407407407407408,0,0,0.07407407407407408,83.85185185185185,0)" xlink:href="#t"/></g><path d="M106-169C34-169 62-67 57 0H25v-261h32l-1 103c12-21 28-36 61-36 89 0 53 116 60 194h-32v-121c2-32-8-49-39-48" id="K"/><path d="M209 0H11v-25l151-195H24v-28h176v25L50-27h159V0" id="L"/><g id="h"><use transform="matrix(0.07407407407407408,0,0,0.07407407407407408,0,0)" xlink:href="#E"/><use transform="matrix(0.07407407407407408,0,0,0.07407407407407408,19.185185185185187,0)" xlink:href="#q"/><use transform="matrix(0.07407407407407408,0,0,0.07407407407407408,34,0)" xlink:href="#o"/><use transform="matrix(0.07407407407407408,0,0,0.07407407407407408,48.81481481481481,0)" xlink:href="#u"/><use transform="matrix(0.07407407407407408,0,0,0.07407407407407408,56.22222222222223,0)" xlink:href="#K"/><use transform="matrix(0.07407407407407408,0,0,0.07407407407407408,71.03703703703704,0)" xlink:href="#L"/><use transform="matrix(0.07407407407407408,0,0,0.07407407407407408,87.25925925925927,0)" xlink:href="#s"/><use transform="matrix(0.07407407407407408,0,0,0.07407407407407408,102.07407407407408,0)" xlink:href="#t"/><use transform="matrix(0.07407407407407408,0,0,0.07407407407407408,116.88888888888889,0)" xlink:href="#q"/></g><path d="M101-251c82-7 93 87 43 132L82-64C71-53 59-42 53-27h129V0H18c2-99 128-94 128-182 0-28-16-43-45-43s-46 15-49 41l-32-3c6-41 34-60 81-64" id="M"/><g id="i"><use transform="matrix(0.07407407407407408,0,0,0.07407407407407408,0,0)" xlink:href="#E"/><use transform="matrix(0.07407407407407408,0,0,0.07407407407407408,19.185185185185187,0)" xlink:href="#q"/><use transform="matrix(0.07407407407407408,0,0,0.07407407407407408,34,0)" xlink:href="#o"/><use transform="matrix(0.07407407407407408,0,0,0.07407407407407408,48.81481481481481,0)" xlink:href="#u"/><use transform="matrix(0.07407407407407408,0,0,0.07407407407407408,56.22222222222223,0)" xlink:href="#K"/><use transform="matrix(0.07407407407407408,0,0,0.07407407407407408,71.03703703703704,0)" xlink:href="#L"/><use transform="matrix(0.07407407407407408,0,0,0.07407407407407408,87.25925925925927,0)" xlink:href="#s"/><use transform="matrix(0.07407407407407408,0,0,0.07407407407407408,102.07407407407408,0)" xlink:href="#t"/><use transform="matrix(0.07407407407407408,0,0,0.07407407407407408,116.88888888888889,0)" xlink:href="#q"/><use transform="matrix(0.07407407407407408,0,0,0.07407407407407408,131.7037037037037,0)" xlink:href="#M"/></g><g id="j"><use transform="matrix(0.07407407407407408,0,0,0.07407407407407408,0,0)" xlink:href="#E"/><use transform="matrix(0.07407407407407408,0,0,0.07407407407407408,19.185185185185187,0)" xlink:href="#q"/><use transform="matrix(0.07407407407407408,0,0,0.07407407407407408,34,0)" xlink:href="#o"/><use transform="matrix(0.07407407407407408,0,0,0.07407407407407408,48.81481481481481,0)" xlink:href="#u"/><use transform="matrix(0.07407407407407408,0,0,0.07407407407407408,56.22222222222223,0)" xlink:href="#K"/><use transform="matrix(0.07407407407407408,0,0,0.07407407407407408,71.03703703703704,0)" xlink:href="#L"/><use transform="matrix(0.07407407407407408,0,0,0.07407407407407408,87.25925925925927,0)" xlink:href="#s"/><use transform="matrix(0.07407407407407408,0,0,0.07407407407407408,102.07407407407408,0)" xlink:href="#t"/><use transform="matrix(0.07407407407407408,0,0,0.07407407407407408,116.88888888888889,0)" xlink:href="#q"/><use transform="matrix(0.07407407407407408,0,0,0.07407407407407408,131.7037037037037,0)" xlink:href="#A"/></g><g id="k"><use transform="matrix(0.07407407407407408,0,0,0.07407407407407408,0,0)" xlink:href="#E"/><use transform="matrix(0.07407407407407408,0,0,0.07407407407407408,19.185185185185187,0)" xlink:href="#q"/><use transform="matrix(0.07407407407407408,0,0,0.07407407407407408,34,0)" xlink:href="#o"/><use transform="matrix(0.07407407407407408,0,0,0.07407407407407408,48.81481481481481,0)" xlink:href="#u"/><use transform="matrix(0.07407407407407408,0,0,0.07407407407407408,56.22222222222223,0)" xlink:href="#K"/><use transform="matrix(0.07407407407407408,0,0,0.07407407407407408,71.03703703703704,0)" xlink:href="#L"/><use transform="matrix(0.07407407407407408,0,0,0.07407407407407408,87.25925925925927,0)" xlink:href="#s"/><use transform="matrix(0.07407407407407408,0,0,0.07407407407407408,102.07407407407408,0)" xlink:href="#t"/><use transform="matrix(0.07407407407407408,0,0,0.07407407407407408,116.88888888888889,0)" xlink:href="#q"/><use transform="matrix(0.07407407407407408,0,0,0.07407407407407408,131.7037037037037,0)" xlink:href="#z"/></g><path d="M127-220V0H93v-220H8v-28h204v28h-85" id="N"/><path d="M160-131c35 5 61 23 61 61C221 17 115-2 30 0v-248c76 3 177-17 177 60 0 33-19 50-47 57zm-97-11c50-1 110 9 110-42 0-47-63-36-110-37v79zm0 115c55-2 124 14 124-45 0-56-70-42-124-44v89" id="O"/><path d="M143 0L79-87 56-68V0H24v-261h32v163l83-92h37l-77 82L181 0h-38" id="P"/><g id="l"><use transform="matrix(0.07407407407407408,0,0,0.07407407407407408,0,0)" xlink:href="#N"/><use transform="matrix(0.07407407407407408,0,0,0.07407407407407408,13.259259259259261,0)" xlink:href="#q"/><use transform="matrix(0.07407407407407408,0,0,0.07407407407407408,28.074074074074076,0)" xlink:href="#v"/><use transform="matrix(0.07407407407407408,0,0,0.07407407407407408,36.88888888888889,0)" xlink:href="#v"/><use transform="matrix(0.07407407407407408,0,0,0.07407407407407408,45.70370370370371,0)" xlink:href="#o"/><use transform="matrix(0.07407407407407408,0,0,0.07407407407407408,60.518518518518526,0)" xlink:href="#G"/><use transform="matrix(0.07407407407407408,0,0,0.07407407407407408,66.37037037037038,0)" xlink:href="#t"/><use transform="matrix(0.07407407407407408,0,0,0.07407407407407408,81.18518518518519,0)" xlink:href="#O"/><use transform="matrix(0.07407407407407408,0,0,0.07407407407407408,98.96296296296296,0)" xlink:href="#w"/><use transform="matrix(0.07407407407407408,0,0,0.07407407407407408,104.81481481481481,0)" xlink:href="#s"/><use transform="matrix(0.07407407407407408,0,0,0.07407407407407408,119.6296296296296,0)" xlink:href="#F"/><use transform="matrix(0.07407407407407408,0,0,0.07407407407407408,132.96296296296296,0)" xlink:href="#P"/></g><path d="M185-189c-5-48-123-54-124 2 14 75 158 14 163 119 3 78-121 87-175 55-17-10-28-26-33-46l33-7c5 56 141 63 141-1 0-78-155-14-162-118-5-82 145-84 179-34 5 7 8 16 11 25" id="Q"/><path d="M206 0h-36l-40-164L89 0H53L-1-190h32L70-26l43-164h34l41 164 42-164h31" id="R"/><g id="m"><use transform="matrix(0.07407407407407408,0,0,0.07407407407407408,0,0)" xlink:href="#D"/><use transform="matrix(0.07407407407407408,0,0,0.07407407407407408,7.407407407407408,0)" xlink:href="#u"/><use transform="matrix(0.07407407407407408,0,0,0.07407407407407408,14.814814814814817,0)" xlink:href="#q"/><use transform="matrix(0.07407407407407408,0,0,0.07407407407407408,29.629629629629633,0)" xlink:href="#p"/><use transform="matrix(0.07407407407407408,0,0,0.07407407407407408,51.777777777777786,0)" xlink:href="#Q"/><use transform="matrix(0.07407407407407408,0,0,0.07407407407407408,69.55555555555557,0)" xlink:href="#J"/><use transform="matrix(0.07407407407407408,0,0,0.07407407407407408,84.37037037037038,0)" xlink:href="#o"/><use transform="matrix(0.07407407407407408,0,0,0.07407407407407408,99.1851851851852,0)" xlink:href="#R"/><use transform="matrix(0.07407407407407408,0,0,0.07407407407407408,118.37037037037038,0)" xlink:href="#t"/><use transform="matrix(0.07407407407407408,0,0,0.07407407407407408,133.1851851851852,0)" xlink:href="#q"/><use transform="matrix(0.07407407407407408,0,0,0.07407407407407408,148,0)" xlink:href="#v"/></g></defs></g></svg>