<svg xmlns="http://www.w3.org/2000/svg" xmlns:xlink="http://www.w3.org/1999/xlink" contentStyleType="text/css" height="476px" preserveAspectRatio="none" style="width:794px;height:476px;background:#FFFFFF;" version="1.1" viewBox="0 0 794 476" width="794px" zoomAndPan="magnify"><defs/><g><rect fill="none" height="133.6641" style="stroke:#000000;stroke-width:1.5;" width="557.3164" x="10" y="53.2969"/><rect fill="none" height="133.6641" style="stroke:#000000;stroke-width:1.5;" width="390.1851" x="398.4922" y="200.9609"/><rect fill="none" height="75.3984" style="stroke:#000000;stroke-width:1.5;" width="390.1851" x="398.4922" y="348.625"/><line style="stroke:#181818;stroke-width:0.5;stroke-dasharray:5.0,5.0;" x1="58" x2="58" y1="36.2969" y2="441.0234"/><line style="stroke:#181818;stroke-width:0.5;stroke-dasharray:5.0,5.0;" x1="252.4204" x2="252.4204" y1="36.2969" y2="441.0234"/><line style="stroke:#181818;stroke-width:0.5;stroke-dasharray:5.0,5.0;" x1="445.4922" x2="445.4922" y1="36.2969" y2="441.0234"/><line style="stroke:#181818;stroke-width:0.5;stroke-dasharray:5.0,5.0;" x1="524.6875" x2="524.6875" y1="36.2969" y2="441.0234"/><line style="stroke:#181818;stroke-width:0.5;stroke-dasharray:5.0,5.0;" x1="609.3164" x2="609.3164" y1="36.2969" y2="441.0234"/><line style="stroke:#181818;stroke-width:0.5;stroke-dasharray:5.0,5.0;" x1="733.1812" x2="733.1812" y1="36.2969" y2="441.0234"/><rect fill="#E2E2F0" height="30.2969" rx="2.5" ry="2.5" style="stroke:#181818;stroke-width:0.5;" width="76.2822" x="20" y="5"/><text fill="#000000" font-family="sans-serif" font-size="14" lengthAdjust="spacing" textLength="62.2822" x="27" y="24.9951">Acceptor</text><rect fill="#E2E2F0" height="30.2969" rx="2.5" ry="2.5" style="stroke:#181818;stroke-width:0.5;" width="76.2822" x="20" y="440.0234"/><text fill="#000000" font-family="sans-serif" font-size="14" lengthAdjust="spacing" textLength="62.2822" x="27" y="460.0186">Acceptor</text><rect fill="#E2E2F0" height="30.2969" rx="2.5" ry="2.5" style="stroke:#181818;stroke-width:0.5;" width="64.1074" x="220.4204" y="5"/><text fill="#000000" font-family="sans-serif" font-size="14" lengthAdjust="spacing" textLength="50.1074" x="227.4204" y="24.9951">VClient</text><rect fill="#E2E2F0" height="30.2969" rx="2.5" ry="2.5" style="stroke:#181818;stroke-width:0.5;" width="64.1074" x="220.4204" y="440.0234"/><text fill="#000000" font-family="sans-serif" font-size="14" lengthAdjust="spacing" textLength="50.1074" x="227.4204" y="460.0186">VClient</text><rect fill="#E2E2F0" height="30.2969" rx="2.5" ry="2.5" style="stroke:#181818;stroke-width:0.5;" width="75.1953" x="408.4922" y="5"/><text fill="#000000" font-family="sans-serif" font-size="14" lengthAdjust="spacing" textLength="61.1953" x="415.4922" y="24.9951">Receiver</text><rect fill="#E2E2F0" height="30.2969" rx="2.5" ry="2.5" style="stroke:#181818;stroke-width:0.5;" width="75.1953" x="408.4922" y="440.0234"/><text fill="#000000" font-family="sans-serif" font-size="14" lengthAdjust="spacing" textLength="61.1953" x="415.4922" y="460.0186">Receiver</text><rect fill="#E2E2F0" height="30.2969" rx="2.5" ry="2.5" style="stroke:#181818;stroke-width:0.5;" width="63.6289" x="493.6875" y="5"/><text fill="#000000" font-family="sans-serif" font-size="14" lengthAdjust="spacing" textLength="49.6289" x="500.6875" y="24.9951">Sender</text><rect fill="#E2E2F0" height="30.2969" rx="2.5" ry="2.5" style="stroke:#181818;stroke-width:0.5;" width="63.6289" x="493.6875" y="440.0234"/><text fill="#000000" font-family="sans-serif" font-size="14" lengthAdjust="spacing" textLength="49.6289" x="500.6875" y="460.0186">Sender</text><rect fill="#E2E2F0" height="30.2969" rx="2.5" ry="2.5" style="stroke:#181818;stroke-width:0.5;" width="85.2236" x="567.3164" y="5"/><text fill="#000000" font-family="sans-serif" font-size="14" lengthAdjust="spacing" textLength="71.2236" x="574.3164" y="24.9951">GameMap</text><rect fill="#E2E2F0" height="30.2969" rx="2.5" ry="2.5" style="stroke:#181818;stroke-width:0.5;" width="85.2236" x="567.3164" y="440.0234"/><text fill="#000000" font-family="sans-serif" font-size="14" lengthAdjust="spacing" textLength="71.2236" x="574.3164" y="460.0186">GameMap</text><rect fill="#E2E2F0" height="30.2969" rx="2.5" ry="2.5" style="stroke:#181818;stroke-width:0.5;" width="89.4961" x="689.1812" y="5"/><text fill="#000000" font-family="sans-serif" font-size="14" lengthAdjust="spacing" textLength="75.4961" x="696.1812" y="24.9951">GameLoop</text><rect fill="#E2E2F0" height="30.2969" rx="2.5" ry="2.5" style="stroke:#181818;stroke-width:0.5;" width="89.4961" x="689.1812" y="440.0234"/><text fill="#000000" font-family="sans-serif" font-size="14" lengthAdjust="spacing" textLength="75.4961" x="696.1812" y="460.0186">GameLoop</text><path d="M10,53.2969 L293.4878,53.2969 L293.4878,60.4297 L283.4878,70.4297 L10,70.4297 L10,53.2969 " fill="#EEEEEE" style="stroke:#000000;stroke-width:1.5;"/><rect fill="none" height="133.6641" style="stroke:#000000;stroke-width:1.5;" width="557.3164" x="10" y="53.2969"/><text fill="#000000" font-family="sans-serif" font-size="13" font-weight="bold" lengthAdjust="spacing" textLength="238.4878" x="25" y="66.3638">Conexi&#243;n &lt;- : Conexi&#243;n entrante</text><polygon fill="#181818" points="240.4741,87.5625,250.4741,91.5625,240.4741,95.5625,244.4741,91.5625" style="stroke:#181818;stroke-width:1;"/><line style="stroke:#181818;stroke-width:1;" x1="58.1411" x2="246.4741" y1="91.5625" y2="91.5625"/><text fill="#000000" font-family="sans-serif" font-size="13" lengthAdjust="spacing" textLength="98.5156" x="65.1411" y="86.4966">Crear instancia</text><polygon fill="#181818" points="434.0898,116.6953,444.0898,120.6953,434.0898,124.6953,438.0898,120.6953" style="stroke:#181818;stroke-width:1;"/><line style="stroke:#181818;stroke-width:1;" x1="252.4741" x2="440.0898" y1="120.6953" y2="120.6953"/><text fill="#000000" font-family="sans-serif" font-size="13" lengthAdjust="spacing" textLength="169.6157" x="259.4741" y="115.6294">Crear instancia (Receiver)</text><polygon fill="#181818" points="513.502,145.8281,523.502,149.8281,513.502,153.8281,517.502,149.8281" style="stroke:#181818;stroke-width:1;"/><line style="stroke:#181818;stroke-width:1;" x1="252.4741" x2="519.502" y1="149.8281" y2="149.8281"/><text fill="#000000" font-family="sans-serif" font-size="13" lengthAdjust="spacing" textLength="158.8755" x="259.4741" y="144.7622">Crear instancia (Sender)</text><polygon fill="#181818" points="240.4741,174.9609,250.4741,178.9609,240.4741,182.9609,244.4741,178.9609" style="stroke:#181818;stroke-width:1;"/><line style="stroke:#181818;stroke-width:1;" x1="58.1411" x2="246.4741" y1="178.9609" y2="178.9609"/><text fill="#000000" font-family="sans-serif" font-size="13" lengthAdjust="spacing" textLength="170.333" x="65.1411" y="173.895">Agregar a lista de clientes</text><path d="M398.4922,200.9609 L625.1113,200.9609 L625.1113,208.0938 L615.1113,218.0938 L398.4922,218.0938 L398.4922,200.9609 " fill="#EEEEEE" style="stroke:#000000;stroke-width:1.5;"/><rect fill="none" height="133.6641" style="stroke:#000000;stroke-width:1.5;" width="390.1851" x="398.4922" y="200.9609"/><text fill="#000000" font-family="sans-serif" font-size="13" font-weight="bold" lengthAdjust="spacing" textLength="181.6191" x="413.4922" y="214.0278">Establecer comunicaci&#243;n</text><polygon fill="#181818" points="597.9282,235.2266,607.9282,239.2266,597.9282,243.2266,601.9282,239.2266" style="stroke:#181818;stroke-width:1;"/><line style="stroke:#181818;stroke-width:1;" x1="446.0898" x2="603.9282" y1="239.2266" y2="239.2266"/><text fill="#000000" font-family="sans-serif" font-size="13" lengthAdjust="spacing" textLength="99.436" x="453.0898" y="234.1606">Solicitar Queue</text><polygon fill="#181818" points="721.9292,264.3594,731.9292,268.3594,721.9292,272.3594,725.9292,268.3594" style="stroke:#181818;stroke-width:1;"/><line style="stroke:#181818;stroke-width:1;" x1="609.9282" x2="727.9292" y1="268.3594" y2="268.3594"/><text fill="#000000" font-family="sans-serif" font-size="13" lengthAdjust="spacing" textLength="100.001" x="616.9282" y="263.2935">Obtener Queue</text><polygon fill="#181818" points="620.9282,293.4922,610.9282,297.4922,620.9282,301.4922,616.9282,297.4922" style="stroke:#181818;stroke-width:1;"/><line style="stroke:#181818;stroke-width:1;stroke-dasharray:2.0,2.0;" x1="614.9282" x2="732.9292" y1="297.4922" y2="297.4922"/><text fill="#000000" font-family="sans-serif" font-size="13" lengthAdjust="spacing" textLength="98.4712" x="626.9282" y="292.4263">Retorna Queue</text><polygon fill="#181818" points="457.0898,322.625,447.0898,326.625,457.0898,330.625,453.0898,326.625" style="stroke:#181818;stroke-width:1;"/><line style="stroke:#181818;stroke-width:1;stroke-dasharray:2.0,2.0;" x1="451.0898" x2="608.9282" y1="326.625" y2="326.625"/><text fill="#000000" font-family="sans-serif" font-size="13" lengthAdjust="spacing" textLength="98.4712" x="463.0898" y="321.5591">Retorna Queue</text><path d="M398.4922,348.625 L475.1162,348.625 L475.1162,355.7578 L465.1162,365.7578 L398.4922,365.7578 L398.4922,348.625 " fill="#EEEEEE" style="stroke:#000000;stroke-width:1.5;"/><rect fill="none" height="75.3984" style="stroke:#000000;stroke-width:1.5;" width="390.1851" x="398.4922" y="348.625"/><text fill="#000000" font-family="sans-serif" font-size="13" font-weight="bold" lengthAdjust="spacing" textLength="31.624" x="413.4922" y="361.6919">loop</text><text fill="#000000" font-family="sans-serif" font-size="11" font-weight="bold" lengthAdjust="spacing" textLength="96.2017" x="490.1162" y="360.8354">[Comunicaci&#243;n]</text><polygon fill="#181818" points="721.9292,382.8906,731.9292,386.8906,721.9292,390.8906,725.9292,386.8906" style="stroke:#181818;stroke-width:1;"/><line style="stroke:#181818;stroke-width:1;" x1="446.0898" x2="727.9292" y1="386.8906" y2="386.8906"/><text fill="#000000" font-family="sans-serif" font-size="13" lengthAdjust="spacing" textLength="136.0557" x="453.0898" y="381.8247">Request (por Queue)</text><polygon fill="#181818" points="536.502,412.0234,526.502,416.0234,536.502,420.0234,532.502,416.0234" style="stroke:#181818;stroke-width:1;"/><line style="stroke:#181818;stroke-width:1;" x1="530.502" x2="732.9292" y1="416.0234" y2="416.0234"/><text fill="#000000" font-family="sans-serif" font-size="13" lengthAdjust="spacing" textLength="150.7949" x="542.502" y="410.9575">Respuesta (por Queue)</text><!--SRC=[XL1BQiCm4Dth5BEC5xw0AOLWIZSjfGvqFr468t16gYoLt2j7wCKwiYrgEIdLJlC-y-OvzC5euv03xBKc5wnNRZNyQ0T378fPHvhC5vN40_5fCth6CxsYkvczMEkKwhsD3bhBT37VLuQ76fhLLvPw4P02UJaQr8yvaN0zeGV3Oq3M1YVY0YPUJdb3X5s6ggrcFkAEOWQglyFiUq-zQ1068oeu4UW9eb69Df_x9DXnaFKUj3r7DXfrEdSoph6IyT9T0mSxI7T1hDyZnRcE1Soyr6S3RyT0J5jQmg1U6tOasHdlsHMjbRpfXY6PjV_cdlDqz1bf3B1pTWbLRLBzzjtHw18P2xQ0Fm00]--></g></svg>